<?xml version="1.0" standalone="no"?>
<!DOCTYPE svg PUBLIC "-//W3C//DTD SVG 20010904//EN"
 "http://www.w3.org/TR/2001/REC-SVG-20010904/DTD/svg10.dtd">
<svg version="1.0" xmlns="http://www.w3.org/2000/svg"
 width="242.000000pt" height="130.000000pt" viewBox="0 0 242.000000 130.000000"
 preserveAspectRatio="xMidYMid meet">

<g transform="translate(0.000000,130.000000) scale(0.100000,-0.100000)"
fill="#000000" stroke="none">
<path d="M413 1064 c-4 -10 0 -20 10 -26 15 -8 17 -31 17 -173 0 -143 -2 -165
-16 -165 -9 0 -14 -7 -12 -17 3 -16 19 -18 135 -21 109 -2 134 0 147 13 18 19
22 95 6 126 -14 26 -50 25 -50 -1 0 -29 -26 -76 -45 -84 -9 -3 -28 -6 -41 -6
l-24 0 0 154 c0 144 1 156 20 169 13 9 18 20 14 31 -9 24 -152 24 -161 0z"/>
<path d="M798 964 c-86 -46 -92 -236 -10 -291 37 -24 129 -24 166 0 36 24 66
90 66 147 0 60 -31 125 -69 144 -38 20 -117 20 -153 0z m103 -40 c7 -9 14 -50
16 -97 4 -90 -9 -132 -42 -132 -11 0 -25 11 -32 25 -15 30 -17 158 -3 194 11
29 41 34 61 10z"/>
<path d="M1018 963 c-2 -10 4 -25 13 -33 9 -8 38 -72 65 -142 l47 -128 43 0
c55 0 63 12 110 154 20 61 43 116 51 123 9 7 13 19 10 28 -9 23 -127 22 -127
-1 0 -9 7 -22 16 -28 13 -10 12 -23 -14 -116 l-29 -104 -17 59 c-10 33 -22 77
-28 98 -9 28 -8 43 2 61 19 37 5 46 -70 46 -57 0 -69 -3 -72 -17z"/>
<path d="M1460 973 c-52 -19 -90 -83 -90 -153 0 -110 52 -164 152 -157 62 4
98 26 98 60 0 15 -5 18 -22 13 -62 -18 -74 -17 -101 4 -16 13 -27 31 -27 46 0
23 3 24 64 24 91 0 96 3 96 62 0 41 -5 54 -29 79 -25 24 -37 29 -78 28 -26 0
-55 -3 -63 -6z m81 -66 c11 -42 2 -57 -37 -57 -30 0 -34 3 -34 26 0 64 56 88
71 31z"/>
<path d="M1536 607 c-46 -14 -56 -31 -27 -47 20 -10 21 -19 21 -185 0 -180 -3
-205 -26 -205 -8 0 -11 -6 -8 -15 5 -11 23 -15 74 -15 69 0 98 14 66 32 -13 7
-16 27 -16 114 0 101 1 105 25 116 45 20 55 -1 55 -119 0 -128 7 -143 63 -143
23 0 49 4 57 10 12 8 12 11 -3 28 -14 15 -17 39 -17 124 0 91 -3 109 -21 132
-26 34 -93 37 -132 6 l-26 -21 -3 98 c-3 110 -6 113 -82 90z"/>
<path d="M1103 598 c-37 -12 -43 -33 -13 -41 19 -5 20 -14 20 -191 0 -161 -2
-186 -16 -194 -32 -18 -3 -32 66 -32 51 0 69 4 74 15 3 9 0 15 -8 15 -23 0
-26 25 -26 236 l0 204 -32 -1 c-18 -1 -48 -6 -65 -11z"/>
<path d="M23 544 c-4 -10 0 -20 10 -26 15 -8 17 -30 17 -168 0 -138 -2 -160
-17 -168 -10 -6 -14 -16 -10 -26 5 -13 21 -16 81 -16 65 0 74 2 79 20 3 13 -1
21 -14 25 -16 5 -19 16 -19 76 l0 69 70 0 70 0 0 -64 c0 -54 -3 -67 -20 -79
-13 -9 -18 -20 -14 -31 9 -24 149 -24 158 0 4 11 -1 22 -14 31 -19 13 -20 25
-20 163 0 138 1 150 20 163 13 9 18 20 14 31 -5 13 -21 16 -79 16 -58 0 -74
-3 -79 -16 -4 -11 1 -22 14 -31 16 -11 20 -25 20 -74 l0 -59 -70 0 -70 0 0 64
c0 55 3 66 19 71 13 4 17 12 14 25 -5 18 -14 20 -79 20 -60 0 -76 -3 -81 -16z"/>
<path d="M1334 543 c-14 -45 -35 -84 -49 -89 -23 -9 -19 -44 5 -44 19 0 20 -7
20 -113 0 -106 2 -115 23 -135 46 -44 147 -20 147 35 0 20 -3 24 -17 18 -10
-4 -27 -8 -38 -9 -19 -1 -20 6 -23 102 l-3 102 29 0 c24 0 31 5 34 25 5 23 2
25 -28 25 -32 0 -34 2 -34 34 0 53 -53 92 -66 49z"/>
<path d="M550 453 c-52 -19 -90 -83 -90 -153 0 -110 52 -164 152 -157 62 4 98
26 98 60 0 15 -5 18 -22 13 -62 -18 -74 -17 -101 4 -16 13 -27 31 -27 46 0 23
3 24 64 24 91 0 96 3 96 62 0 41 -5 54 -29 79 -25 24 -37 29 -78 28 -26 0 -55
-3 -63 -6z m81 -66 c11 -42 2 -57 -37 -57 -30 0 -34 3 -34 26 0 64 56 88 71
31z"/>
<path d="M813 441 c-37 -23 -49 -52 -33 -81 8 -16 19 -20 42 -18 39 4 58 30
40 58 -11 18 -10 20 18 20 36 0 50 -23 50 -81 l0 -42 -40 6 c-62 8 -109 -9
-124 -45 -17 -39 -9 -74 22 -98 27 -22 91 -27 124 -9 14 8 23 8 31 0 14 -14
94 -14 102 -1 3 5 -1 20 -9 32 -12 17 -16 48 -16 124 0 134 -9 147 -106 152
-56 2 -75 -1 -101 -17z m105 -190 c8 -5 12 -21 10 -37 -2 -23 -9 -30 -29 -32
-36 -4 -55 21 -41 53 12 25 36 32 60 16z"/>
<path d="M1833 445 c-3 -9 1 -23 10 -33 8 -9 36 -70 62 -134 42 -105 50 -118
71 -118 30 0 31 -19 2 -55 -19 -24 -26 -27 -64 -21 -36 5 -44 3 -49 -14 -16
-49 54 -86 111 -58 40 18 68 74 120 240 25 78 51 150 59 159 8 8 15 23 15 32
0 14 -11 17 -60 17 -67 0 -86 -16 -56 -49 15 -17 15 -24 -5 -107 -11 -49 -22
-90 -24 -92 -1 -2 -17 38 -34 89 -28 86 -30 94 -15 110 9 10 14 25 11 34 -9
22 -145 22 -154 0z"/>
</g>
</svg>
